<svg width="38" height="37" viewBox="0 0 38 37" fill="none" xmlns="http://www.w3.org/2000/svg">
<g id="Group 59">
<path id="Rectangle 42" d="M32 9.68421V5C32 2.79086 30.2091 1 28 1H5C2.79086 1 1 2.79086 1 5V19.5C1 21.433 2.567 23 4.5 23V23" stroke="#C3C130" stroke-width="2" stroke-linecap="round"/>
<path id="Rectangle 41" d="M31 30H33C35.2091 30 37 28.2091 37 26V15C37 12.7909 35.2091 11 33 11H19C16.7909 11 15 12.7909 15 15V26C15 28.2091 16.7909 30 19 30H24.5" stroke="#C3C130" stroke-width="2" stroke-linecap="round"/>
<path id="Polygon 1" d="M25 30L31.5454 36L30.8181 30" stroke="#C3C130" stroke-width="2" stroke-linecap="round" stroke-linejoin="round"/>
<path id="Polygon 2" d="M4 30L4.67673 30.7362C4.36845 31.0196 3.91625 31.0809 3.54365 30.8898C3.17106 30.6987 2.95698 30.2957 3.00723 29.88L4 30ZM11.6154 23L10.9387 22.2638C11.1232 22.0941 11.3647 22 11.6154 22L11.6154 23ZM3.85337 22.88C3.91965 22.3317 4.41786 21.941 4.96615 22.0072C5.51444 22.0735 5.9052 22.5717 5.83892 23.12L3.85337 22.88ZM3.32327 29.2638L10.9387 22.2638L12.2921 23.7362L4.67673 30.7362L3.32327 29.2638ZM5.83892 23.12L4.99277 30.12L3.00723 29.88L3.85337 22.88L5.83892 23.12ZM11.6154 22L15 22L15 24L11.6154 24L11.6154 22Z" fill="#C3C130"/>
<path id="Vector" d="M19.6442 21.0337C19.7093 21.1463 21.2768 23.7928 25.8521 26.9554C25.8946 26.9859 25.9471 27 25.9996 27C26.0521 27 26.1046 26.9859 26.1471 26.9554C30.7224 23.7928 32.29 21.1463 32.3625 21.0196C32.7375 20.2547 32.95 19.5133 32.9925 18.8165C32.9975 18.7462 33 18.6758 33 18.6077C33 16.7449 31.4074 15.1213 29.4248 15.0063C27.5472 14.8984 26.4446 16.2498 25.9996 16.9584C25.5546 16.2498 24.452 14.8961 22.5744 15.0063C20.5168 15.126 18.8817 16.8692 19.0067 18.8165C19.0492 19.5133 19.2617 20.2547 19.6442 21.0337Z" stroke="#C3C130" stroke-width="2" stroke-linejoin="round"/>
</g>
</svg>
