<?xml version="1.0" encoding="UTF-8" standalone="no"?>
<svg width="256" height="256" viewBox="0 0 256 256" fill="none" xmlns="http://www.w3.org/2000/svg" xmlns:xlink="http://www.w3.org/1999/xlink">
<g id="Group">
<path id="Vector" d="M113.631 109.498H113.659C119.258 109.498 123.858 104.948 123.909 99.3564C123.935 96.6113 122.85 93.9257 120.934 91.9911C119.023 90.0618 116.461 89 113.719 89C113.641 89 113.563 89 113.483 89.0026C110.653 89.0647 108.065 90.1887 106.193 92.1621C104.365 94.0888 103.355 96.7175 103.414 99.3875C103.443 102.089 104.51 104.616 106.418 106.517C108.34 108.431 110.901 109.49 113.628 109.498H113.631ZM113.623 95.1973C113.657 95.1973 113.688 95.1973 113.721 95.1973C116.096 95.1973 117.736 97.137 117.715 99.2994C117.694 101.48 115.866 103.303 113.659 103.303H113.649C111.409 103.298 109.619 101.516 109.614 99.2865C109.552 97.3234 110.971 95.2594 113.626 95.1998L113.623 95.1973Z" fill="white"/>
<path id="Vector_2" d="M144.402 109.498H144.431C150.03 109.498 154.629 104.948 154.681 99.3564C154.707 96.6113 153.622 93.9257 151.705 91.9911C149.794 90.0618 147.233 89 144.49 89C144.413 89 144.335 89 144.255 89.0026C141.424 89.0647 138.837 90.1887 136.964 92.1621C135.136 94.0888 134.126 96.7175 134.186 99.3875C134.214 102.089 135.281 104.616 137.19 106.517C139.111 108.431 141.673 109.49 144.4 109.498H144.402ZM144.394 95.1973C144.428 95.1973 144.459 95.1973 144.493 95.1973C146.868 95.1973 148.507 97.137 148.486 99.2994C148.466 101.48 146.637 103.303 144.431 103.303H144.42C142.18 103.298 140.391 101.516 140.386 99.2865C140.323 97.3234 141.743 95.2594 144.394 95.1998V95.1973Z" fill="white"/>
<path id="Vector_3" d="M190.821 157.421C194.804 152.231 197 145.433 197 138.247C197 131.06 194.765 124.13 190.71 118.922C189.239 117.031 186.512 116.695 184.621 118.166C182.73 119.637 182.394 122.364 183.865 124.252C186.739 127.945 188.324 132.914 188.324 138.247C188.324 143.579 186.739 148.549 183.865 152.242C183.261 153.019 182.614 153.71 181.935 154.321C180.001 156.012 177.634 157.092 175.07 157.439C174.816 157.457 174.562 157.47 174.309 157.47C174.006 157.47 173.71 157.501 173.426 157.561C173.369 157.561 173.312 157.566 173.252 157.566C169.836 157.566 166.648 156.292 164.216 154.008C168.199 148.31 171.25 142.173 172.387 135.186C173.283 129.695 173.027 124.288 170.411 119.225C168.368 115.27 165.198 112.821 160.596 112.536C160.264 112.515 159.938 112.505 159.62 112.505C155.248 112.505 151.832 114.413 149.481 118.249C147.225 121.929 146.502 126.015 146.5 130.812C146.549 131.456 146.58 132.655 146.738 133.836C147.699 141.038 150.574 147.319 154.484 153.107C151.972 155.95 148.422 157.566 144.583 157.566C140.745 157.566 136.939 155.836 134.414 152.798C137.99 147.443 140.699 141.683 141.758 135.188C142.654 129.698 142.398 124.291 139.782 119.228C137.739 115.273 134.569 112.823 129.967 112.538C129.635 112.518 129.309 112.507 128.991 112.507C124.619 112.507 121.203 114.416 118.852 118.251C116.596 121.931 115.873 126.018 115.871 130.814C115.92 131.459 115.951 132.658 116.109 133.839C117.065 141.002 119.916 147.256 123.796 153.019C121.278 155.919 117.694 157.566 113.815 157.566C109.935 157.566 106.17 155.836 103.645 152.798C107.221 147.443 109.93 141.683 110.989 135.188C111.885 129.698 111.629 124.291 109.013 119.228C106.97 115.273 103.8 112.823 99.1981 112.538C98.8666 112.518 98.5403 112.507 98.2218 112.507C93.8503 112.507 90.4344 114.416 88.0829 118.251C85.8272 121.931 85.1047 126.018 85.1021 130.814C85.1513 131.459 85.1824 132.658 85.3404 133.839C86.2856 140.922 89.0825 147.117 92.8946 152.824C90.3696 155.847 86.7103 157.569 82.7428 157.569C82.6859 157.569 82.6289 157.564 82.5693 157.564C82.2844 157.504 81.9892 157.473 81.6862 157.473C81.4324 157.473 81.1786 157.46 80.9248 157.442C78.361 157.095 75.9914 156.012 74.0594 154.321C73.3809 153.71 72.7361 153.019 72.1326 152.244C69.258 148.551 67.6731 143.582 67.6731 138.249C67.6731 132.917 69.258 127.947 72.1326 124.254C73.6036 122.364 73.2669 119.639 71.3764 118.168C69.4859 116.697 66.7615 117.034 65.2905 118.925C61.235 124.133 59 130.995 59 138.249C59 145.503 61.2039 152.268 65.2077 157.463C65.231 157.496 65.2542 157.525 65.2776 157.556C65.2827 157.561 65.2879 157.569 65.2905 157.574C65.2957 157.582 65.3034 157.59 65.3086 157.597C65.9405 158.429 66.6294 159.208 67.3675 159.933C70.988 163.561 75.3931 165.693 80.1116 166.081C80.9818 166.188 81.8597 166.244 82.7454 166.244C88.5827 166.244 94.1973 163.87 98.2813 159.775C102.365 163.867 107.98 166.244 113.817 166.244C119.655 166.244 125.132 163.927 129.203 159.925C133.274 163.927 138.824 166.244 144.589 166.244C149.872 166.244 154.974 164.297 158.923 160.894C162.872 164.3 167.974 166.244 173.257 166.244C174.143 166.244 175.021 166.19 175.891 166.081C180.609 165.693 185.017 163.561 188.635 159.933C189.373 159.208 190.062 158.429 190.697 157.597C190.702 157.59 190.707 157.582 190.715 157.577C190.72 157.571 190.722 157.564 190.728 157.558C190.751 157.527 190.777 157.496 190.8 157.465C190.811 157.452 190.818 157.437 190.829 157.424L190.821 157.421ZM95.2643 122.656C96.1629 121.191 96.9321 120.934 98.2192 120.934C98.3642 120.934 98.517 120.939 98.675 120.95C99.6928 121.012 100.55 121.211 101.526 123.097C103.028 126.002 103.393 129.416 102.671 133.834C102.042 137.695 100.612 141.505 98.258 145.529C95.7253 141.189 94.2646 137.045 93.6897 132.725C93.6172 132.192 93.5809 131.526 93.5525 130.993C93.5447 130.837 93.5343 130.692 93.5266 130.555C93.5551 126.963 94.0782 124.591 95.2643 122.656ZM126.036 122.656C126.934 121.191 127.703 120.934 128.991 120.934C129.136 120.934 129.288 120.939 129.446 120.95C130.464 121.012 131.321 121.211 132.298 123.097C133.8 126.002 134.165 129.416 133.442 133.834C132.813 137.695 131.384 141.505 129.029 145.529C126.497 141.189 125.036 137.045 124.461 132.725C124.389 132.192 124.352 131.526 124.324 130.993C124.316 130.837 124.306 130.692 124.298 130.555C124.326 126.963 124.85 124.591 126.036 122.656ZM156.667 122.656C157.566 121.191 158.335 120.934 159.622 120.934C159.767 120.934 159.92 120.939 160.078 120.95C161.096 121.012 161.953 121.211 162.929 123.097C164.431 126.002 164.796 129.416 164.074 133.834C163.445 137.695 162.015 141.505 159.661 145.529C157.128 141.189 155.668 137.045 155.093 132.725C155.02 132.192 154.984 131.526 154.955 130.993C154.948 130.837 154.94 130.69 154.93 130.555C154.958 126.963 155.481 124.591 156.667 122.659V122.656Z" fill="white"/>
</g>
</svg>
